# AST/ASF file generated using VICON BodyLanguage
# -----------------------------------------------
:version 1.10
:name VICON
:units
  mass 1.0
  length 0.45
  angle deg
:documentation
   .ast/.asf automatically generated from VICON data using
   VICON BodyBuilder and BodyLanguage model FoxedUp or BRILLIANT.MOD
:root
   order TX TY TZ RX RY RZ
   axis XYZ
   position 0 0 0  
   orientation 0 0 0 
:bonedata
  begin
     id 1 
     name lhipjoint
     direction 0.653368 -0.678499 0.335782 
     length 2.51848 
     axis 0 0 0  XYZ
  end
  begin
     id 2 
     name lfemur
     direction 0.34202 -0.939693 0  
     length 6.57749  
     axis 0 0 20  XYZ
    dof rx ry rz
    limits (-160.0 20.0)
           (-70.0 70.0)
           (-60.0 70.0)
  end
  begin
     id 3 
     name ltibia
     direction 0.34202 -0.939693 0   
     length 7.94618   
     axis 0 0 20   XYZ
    dof rx
    limits (-10.0 170.0)
  end
  begin
     id 4 
     name lfoot
     direction 0.0811271 -0.222895 0.971461   
     length 2.31339   
     axis -90 7.62852e-016 20   XYZ
    dof rx rz
    limits (-45.0 90.0)
           (-70.0 20.0)
  end
  begin
     id 5 
     name ltoes
     direction 1.53568e-011 -4.21885e-011 1   
     length 1.15935   
     axis -90 7.62852e-016 20   XYZ
    dof rx
    limits (-90.0 20.0)
  end
  begin
     id 6 
     name rhipjoint
     direction -0.640058 -0.688614 0.340788   
     length 2.48149  
     axis 0 0 0  XYZ 
  end
  begin
     id 7 
     name rfemur
     direction -0.34202 -0.939693 0   
     length 6.57875   
     axis 0 0 -20   XYZ
    dof rx ry rz
    limits (-160.0 20.0)
           (-70.0 70.0)
           (-70.0 60.0)
  end
  begin
     id 8 
     name rtibia
     direction -0.34202 -0.939693 0   
     length 7.977   
     axis 0 0 -20   XYZ
    dof rx
    limits (-10.0 170.0)
 end
 begin
     id 9 
     name rfoot
     direction -0.0979793 -0.269196 0.958089   
     length 2.19857  
     axis -90 -7.62852e-016 -20   XYZ
    dof rx rz
    limits (-45.0 90.0)
           (-20.0 70.0)
  end
  begin
     id 10 
     name rtoes
     direction -1.53556e-011 -4.21868e-011 1   
     length 1.09838   
     axis -90 -7.62852e-016 -20   XYZ
    dof rx
    limits (-90.0 20.0)
  end
  begin
     id 11 
     name lowerback
     direction 0.0149039 0.998517 -0.0523597   
     length 2.10809   
     axis 0 0 0   XYZ
    dof rx ry rz
    limits (-20.0 45.0)
           (-30.0 30.0)
           (-30.0 30.0)
  end
  begin
     id 12 
     name upperback
     direction -0.00882659 0.999418 -0.0329624   
     length 2.1102   
     axis 0 0 0   XYZ
    dof rx ry rz
    limits (-20.0 45.0)
           (-30.0 30.0)
           (-30.0 30.0)
  end
  begin
     id 13 
     name thorax
     direction -0.0165585 0.999826 -0.0085833   
     length 2.11039   
     axis 0 0 0   XYZ
    dof rx ry rz
    limits (-20.0 45.0)
           (-30.0 30.0)
           (-30.0 30.0)
  end
  begin
     id 14 
     name lowerneck
     direction -0.0130877 0.999911 0.00260353   
     length 1.73253   
     axis 0 0 0   XYZ
    dof rx ry rz
    limits (-20.0 45.0)
           (-30.0 30.0)
           (-30.0 30.0)
  end
  begin
     id 15 
     name upperneck
     direction -0.0348454 0.928205 -0.370435   
     length 1.66692   
     axis 0 0 0   XYZ
    dof rx ry rz
    limits (-20.0 45.0)
           (-30.0 30.0)
           (-30.0 30.0)
  end
  begin
     id 16
     name head
     direction -0.00807754 0.992494 -0.122026  
     length 1.72765  
     axis 0 0 0   XYZ
    dof rx ry rz
    limits (-20.0 45.0)
           (-30.0 30.0)
           (-30.0 30.0)
  end
  begin
     id 17 
     name lclavicle
     direction 0.987582 0.144023 0.0627671  
     length 3.49235  
     axis 0 0 0   XYZ
    dof ry rz
    limits (-20.0 10.0)
           (0.0 20.0)
  end
  begin
     id 18 
     name lhumerus
     direction 1 -4.48958e-011 -1.45183e-018   
     length 5.41917   
     axis 180 -30 -90   XYZ
    dof rx ry rz
    limits (-60.0 90.0)
           (-90.0 90.0)
           (-90.0 90.0)
  end
  begin
     id 19
     name lradius
     direction 1 -4.48999e-011 5.75106e-027   
     length 2.44373   
     axis 180 -30 -90   XYZ
    dof rx
    limits (-10.0 170.0)
  end
  begin
     id 20
     name lwrist
     direction 1 -4.48987e-011 1.53461e-026   
     length 1.22186   
     axis -1.09697e-014 90 90   XYZ
    dof ry
    limits (-180.0 0.0)
 end
  begin
     id 21 
     name lhand
     direction 1 -4.48881e-011 3.06923e-026   
     length 0.727502   
     axis -1.95843e-014 90 90   XYZ
    dof rx rz
    limits (-90.0 90.0)
           (-45.0 45.0)
  end
  begin
     id 22 
     name lfingers
     direction 1 -4.48907e-011 6.13845e-026   
     length 0.586531   
     axis -3.91686e-014 90 90   XYZ
    dof rx
    limits (0.0 90.0)
  end
  begin
     id 23
     name lthumb
     direction 0.707107 -6.3487e-011 0.707107   
     length 0.842145   
     axis -90 45 2.85299e-015   XYZ
    dof rx rz
    limits (-45.0 45.0)
           (-45.0 45.0)
  end
  begin
     id 24 
     name rclavicle
     direction -0.980998 0.169556 0.0943023   
     length 3.29272  
     axis 0 0 0   XYZ 
    dof ry rz
    limits (-10.0 20.0)
           (-20.0 0.0)
  end
  begin
     id 25 
     name rhumerus
     direction -1 -1.83355e-005 2.45537e-005  
     length 5.58976   
     axis 180 30 90   XYZ
    dof rx ry rz
    limits (-90.0 60.0)
           (-90.0 90.0)
           (-90.0 90.0)
  end
  begin
     id 26 
     name rradius
     direction -1 -4.48967e-011 5.97228e-027   
     length 2.4806   
     axis 180 30 90   XYZ
    dof rx
    limits (-10.0 170.0)
  end
  begin
     id 27 
     name rwrist
     direction -1 -4.48963e-011 1.53461e-026   
     length 1.2403   
     axis -1.09697e-014 -90 -90   XYZ
    dof ry
    limits (-180.0 0.0)
  end
  begin
     id 28
     name rhand
     direction -1 -4.48881e-011 3.06923e-026   
     length 0.816009   
     axis -1.95843e-014 -90 -90   XYZ
    dof rx rz
    limits (-90.0 90.0)
           (-45.0 45.0)
  end
  begin
     id 29
     name rfingers
     direction -1 -4.49018e-011 6.13845e-026   
     length 0.657887   
     axis -3.91686e-014 -90 -90   XYZ
    dof rx
    limits (0.0 90.0)
  end
  begin
     id 30
     name rthumb
     direction -0.707107 -6.34872e-011 0.707107   
     length 0.944599   
     axis -90 -45 -2.85299e-015   XYZ
    dof rx rz
    limits (-45.0 45.0)
           (-45.0 45.0)
  end
:hierarchy
  begin
    root lhipjoint rhipjoint lowerback
    lhipjoint lfemur
    lfemur ltibia
    ltibia lfoot
    lfoot ltoes
    rhipjoint rfemur
    rfemur rtibia
    rtibia rfoot
    rfoot rtoes
    lowerback upperback
    upperback thorax
    thorax lowerneck lclavicle rclavicle
    lowerneck upperneck
    upperneck head
    lclavicle lhumerus
    lhumerus lradius
    lradius lwrist
    lwrist lhand lthumb
    lhand lfingers
    rclavicle rhumerus
    rhumerus rradius
    rradius rwrist
    rwrist rhand rthumb
    rhand rfingers
  end

#!OML:ASF F:\VICON\USERDATA\INSTALL\rory3\rory3.ASF
:FULLY-SPECIFIED
:DEGREES
37
root 3.87407 17.7136 22.0639 -171.448 -45.3798 189.327
lowerback -5.8702 2.54907 5.14488
upperback -6.32924 2.82359 3.52194
thorax -3.19308 1.08318 0.867556
lowerneck -11.7953 -3.18213 -4.51537
upperneck 25.6092 -4.81319 1.56346
head 10.2563 -2.80806 0.667175
rclavicle 1.45858e-013 1.74931e-014
rhumerus 187.994 -63.9665 147.685
rradius 12.4506
rwrist 91.1908
rhand -8.25242 8.06712
rfingers 7.12502
rthumb 17.6659 -21.1503
lclavicle 1.45858e-013 1.74931e-014
lhumerus -19.5108 18.8286 8.07151
lradius 20.315
lwrist -38.8575
lhand -4.66914 28.6762
lfingers 7.12502
lthumb 21.1113 57.5469
rfemur -40.0819 10.9279 10.1423
rtibia 28.6782
rfoot -48.8685 -6.5309
rtoes 62.2344
lfemur -22.9896 6.42947 -29.9502
ltibia 28.0052
lfoot -19.754 26.8373
ltoes 1.36783
38
root 3.91073 17.612 21.9332 -171.275 -45.2504 189.178
lowerback -5.77624 2.38935 4.98935
upperback -6.49299 2.62495 3.45292
thorax -3.42429 0.979949 0.870937
lowerneck -11.7624 -2.97255 -4.24693
upperneck 25.5723 -4.59402 1.62469
head 10.2222 -2.67679 0.672008
rclavicle 1.95865e-014 -1.11319e-014
rhumerus 188.852 -62.6053 146.479
rradius 12.468
rwrist 92.7323
rhand -7.93694 8.00541
rfingers 7.12502
rthumb 17.9695 -21.1845
lclavicle 1.95865e-014 -1.11319e-014
lhumerus -19.9662 17.5865 7.81694
lradius 20.4832
lwrist -37.9587
lhand -4.74384 28.7621
lfingers 7.12502
lthumb 21.0395 57.6408
rfemur -40.027 11.2652 8.95938
rtibia 28.0261
rfoot -51.6393 -0.431355
rtoes 62.2128
lfemur -22.6457 6.77536 -29.8169
ltibia 27.968
lfoot -20.5838 26.4262
ltoes -0.256039
39
root 3.93655 17.5016 21.8322 -170.741 -45.0725 188.713
lowerback -5.52015 2.34429 5.0099
upperback -6.77909 2.58704 3.19975
thorax -3.85626 0.939551 0.585909
lowerneck -11.9783 -2.85822 -4.19046
upperneck 25.7557 -4.50284 1.8337
head 10.331 -2.60761 0.741952
rclavicle -3.60297e-015 1.59028e-015
rhumerus 190.812 -62.6183 144.278
rradius 12.408
rwrist 92.679
rhand -7.24971 7.56355
rfingers 7.12502
rthumb 18.6306 -21.5643
lclavicle -3.60297e-015 1.59028e-015
lhumerus -20.1605 17.3035 7.5632
lradius 20.4302
lwrist -38.2689
lhand -4.76107 28.7306
lfingers 7.12502
lthumb 21.023 57.6112
rfemur -40.2523 10.9613 7.63731
rtibia 27.4885
rfoot -53.7523 1.5728
rtoes 62.0875
lfemur -22.4333 6.43967 -29.9226
ltibia 27.8356
lfoot -22.7041 26.1218
ltoes 0.927064
40
root 3.96861 17.3945 21.7239 -170.06 -44.9173 187.827
lowerback -5.35991 2.2881 4.55524
upperback -6.80365 2.54995 2.92858
thorax -3.97661 0.940561 0.549833
lowerneck -12.578 -2.82066 -3.93094
upperneck 25.9877 -4.47489 1.81515
head 10.5249 -2.56248 0.683447
rclavicle 4.44159e-014 1.94809e-014
rhumerus 192.882 -62.9733 142.033
rradius 12.3438
rwrist 91.9418
rhand -5.83893 7.10575
rfingers 7.12502
rthumb 19.9872 -21.8863
lclavicle 4.44159e-014 1.94809e-014
lhumerus -20.1688 17.993 7.39829
lradius 20.2253
lwrist -39.2104
lhand -4.65884 28.5711
lfingers 7.12502
lthumb 21.1212 57.4407
rfemur -40.3889 10.7271 5.99026
rtibia 27.1135
rfoot -55.9117 0.793585
rtoes 62.1405
lfemur -21.9629 6.30442 -30.2965
ltibia 27.5617
lfoot -24.7537 25.7201
ltoes 2.10487
41
root 4.00029 17.2916 21.6033 -169.145 -44.9053 186.556
lowerback -5.31223 2.14125 3.72696
upperback -6.81368 2.39268 2.62873
thorax -4.0333 0.900826 0.693184
lowerneck -12.9839 -2.77214 -3.64512
upperneck 26.0728 -4.42066 1.72021
head 10.6243 -2.51215 0.601457
rclavicle 3.58931e-014 8.34896e-015
rhumerus 191.385 -58.2656 143.624
rradius 12.5897
rwrist 96.8941
rhand -4.53122 6.87499
rfingers 7.12502
rthumb 21.2438 -21.9808
lclavicle 3.58931e-014 8.34896e-015
lhumerus -20.2838 17.8572 7.30116
lradius 20.2237
lwrist -39.2238
lhand -4.25037 28.6009
lfingers 7.12502
lthumb 21.5135 57.4262
rfemur -40.3791 10.1115 4.27491
rtibia 26.8943
rfoot -57.4637 1.37089
rtoes 62.3232
lfemur -21.3473 6.31013 -30.9236
ltibia 27.1639
lfoot -26.3267 24.9925
ltoes 3.68104
42
root 4.0383 17.2012 21.4786 -168.098 -44.8271 185.101
lowerback -5.17399 1.95955 2.68725
upperback -6.85008 2.19538 2.34105
thorax -4.17546 0.849525 0.965145
lowerneck -13.4475 -2.66574 -3.41815
upperneck 26.1796 -4.25245 1.56902
head 10.7404 -2.42124 0.523468
rclavicle 1.0517e-013 -1.23246e-014
rhumerus 189.209 -51.8709 145.988
rradius 12.8884
rwrist 104.213
rhand -3.30322 6.10446
rfingers 7.12502
rthumb 22.4229 -22.614
lclavicle 1.0517e-013 -1.23246e-014
lhumerus -20.5742 17.7303 7.05019
lradius 20.1735
lwrist -39.103
lhand -3.92034 28.6212
lfingers 7.12502
lthumb 21.8305 57.4099
rfemur -40.4022 9.36839 2.62544
rtibia 26.8192
rfoot -58.5101 2.55048
rtoes 62.4077
lfemur -20.7358 6.37864 -31.6757
ltibia 26.6573
lfoot -27.2364 24.6387
ltoes 3.55175
43
root 4.08658 17.1258 21.3496 -166.859 -44.6678 183.438
lowerback -5.02306 1.81002 1.41809
upperback -6.92108 2.03706 1.98883
thorax -4.36481 0.826682 1.30085
lowerneck -13.7726 -2.58615 -3.19886
upperneck 26.1306 -4.13424 1.48364
head 10.7755 -2.34501 0.467898
rclavicle 5.04478e-014 2.90226e-014
rhumerus 189.266 -48.9819 146.085
rradius 13.0072
rwrist 107.801
rhand -1.50988 5.73762
rfingers 7.12502
rthumb 24.1434 -22.7631
lclavicle 5.04478e-014 2.90226e-014
lhumerus -20.7567 17.9076 6.68728
lradius 20.0406
lwrist -39.2617
lhand -3.74603 28.6903
lfingers 7.12502
lthumb 21.9978 57.4594
rfemur -40.5504 9.09172 0.663449
rtibia 26.8316
rfoot -59.9254 4.1515
rtoes 62.4259
lfemur -20.1964 6.24333 -32.5238
ltibia 26.0992
lfoot -27.8199 24.7018
ltoes 2.34953
44
root 4.13427 17.0643 21.2138 -165.42 -44.7402 181.598
lowerback -5.04303 1.59999 0.00820034
upperback -7.03546 1.78081 1.64252
thorax -4.50537 0.759646 1.72685
lowerneck -14.0019 -2.51631 -3.2506
upperneck 26.15 -4.00829 1.50947
head 10.8262 -2.28345 0.49975
rclavicle 7.76378e-014 8.34896e-015
rhumerus 190.466 -48.1117 145.191
rradius 13.1354
rwrist 109.244
rhand 0.183921 6.24485
rfingers 7.12502
rthumb 25.7665 -22.0305
lclavicle 7.76378e-014 8.34896e-015
lhumerus -20.9226 18.4959 6.27093
lradius 19.8738
lwrist -39.9067
lhand -3.46192 28.7041
lfingers 7.12502
lthumb 22.2706 57.4408
rfemur -40.6003 8.76826 -1.43378
rtibia 26.8467
rfoot -61.5142 5.31003
rtoes 62.4516
lfemur -19.6991 5.77253 -33.4381
ltibia 25.5547
lfoot -28.5521 24.6463
ltoes 2.52044
45
root 4.17537 17.0196 21.0717 -164.211 -44.6955 180.077
lowerback -5.11754 1.48043 -1.09747
upperback -7.1647 1.62858 1.3033
thorax -4.62166 0.72807 1.99354
lowerneck -14.0428 -2.48709 -3.25441
upperneck 26.1077 -3.93046 1.42212
head 10.8145 -2.25605 0.479652
rclavicle -1.46983e-013 -2.50469e-014
rhumerus 193.074 -50.311 142.676
rradius 13.1527
rwrist 107.716
rhand 1.86312 6.21218
rfingers 7.12502
rthumb 27.3737 -21.8198
lclavicle -1.46983e-013 -2.50469e-014
lhumerus -21.0063 18.8655 5.85272
lradius 19.7208
lwrist -40.4448
lhand -3.11919 28.6386
lfingers 7.12502
lthumb 22.5996 57.3357
rfemur -40.585 8.12217 -2.9516
rtibia 26.8081
rfoot -62.6776 5.56158
rtoes 62.4565
lfemur -19.2085 5.7581 -34.1452
ltibia 25.0432
lfoot -29.0747 24.3842
ltoes 2.59074
46
root 4.21598 16.9966 20.9361 -163.079 -44.5327 178.734
lowerback -5.30696 1.41389 -2.03584
upperback -7.2002 1.54915 1.03878
thorax -4.57407 0.726084 2.24762
lowerneck -13.9443 -2.5225 -3.14516
upperneck 25.6966 -3.8857 1.12343
head 10.6328 -2.2489 0.367035
rclavicle 5.26904e-014 -1.35174e-014
rhumerus 193.51 -48.871 142.544
rradius 13.3401
rwrist 109.771
rhand 2.4158 6.62744
rfingers 7.12502
rthumb 27.9022 -21.3198
lclavicle 5.26904e-014 -1.35174e-014
lhumerus -21.0815 20.0332 5.41911
lradius 19.4268
lwrist -41.5265
lhand -2.87595 28.6332
lfingers 7.12502
lthumb 22.833 57.3017
rfemur -40.6486 7.7833 -4.3991
rtibia 26.7353
rfoot -63.9557 5.7914
rtoes 62.4265
lfemur -18.8001 5.60825 -34.6991
ltibia 24.5362
lfoot -29.3405 24.2544
ltoes 2.42267
47
root 4.25974 16.9863 20.7948 -162.141 -44.3557 177.442
lowerback -5.43974 1.33798 -3.05711
upperback -7.14461 1.47022 0.78794
thorax -4.46579 0.729604 2.56149
lowerneck -13.636 -2.50081 -2.64541
upperneck 25.0194 -3.78673 0.58991
head 10.2997 -2.20408 0.120638
rclavicle 4.30493e-015 2.3059e-014
rhumerus 189.283 -35.8453 147.753
rradius 14.8732
rwrist 123.787
rhand 1.31538 7.62252
rfingers 7.12502
rthumb 26.8497 -20.4911
lclavicle 4.30493e-015 2.3059e-014
lhumerus -21.1306 20.9655 5.06578
lradius 19.2381
lwrist -42.4234
lhand -2.56453 28.9948
lfingers 7.12502
lthumb 23.1318 57.6261
rfemur -40.5027 7.61938 -5.72845
rtibia 26.6028
rfoot -65.2509 6.68766
rtoes 62.4544
lfemur -18.2815 5.76499 -35.1644
ltibia 24.0881
lfoot -29.183 23.9125
ltoes 2.098
48
root 4.30572 16.9892 20.6405 -161.602 -44.2275 176.649
lowerback -5.38899 1.23601 -3.71924
upperback -7.38161 1.31222 0.527884
thorax -4.75231 0.674368 2.65851
lowerneck -12.8864 -2.36364 -2.19525
upperneck 24.6603 -3.67136 0.389269
head 10.0088 -2.14101 0.00494168
rclavicle 3.38431e-014 5.96354e-015
rhumerus 199.783 -53.6415 136.144
rradius 13.1113
rwrist 104.757
rhand 3.53375 4.47256
rfingers 7.12502
rthumb 28.9705 -23.2963
lclavicle 3.38431e-014 5.96354e-015
lhumerus -21.2907 20.6654 4.47477
lradius 19.312
lwrist -42.2928
lhand -2.40477 29.4285
lfingers 7.12502
lthumb 23.2851 58.0404
rfemur -40.274 7.55626 -6.5157
rtibia 26.4693
rfoot -66.2377 7.78099
rtoes 62.461
lfemur -17.7305 6.10277 -35.1594
ltibia 23.6511
lfoot -28.9208 23.3291
ltoes 2.37665
49
root 4.35601 17.0117 20.4781 -161.436 -44.0261 176.347
lowerback -5.25047 1.19449 -4.0621
upperback -7.69671 1.21352 0.327802
thorax -5.16699 0.636101 2.63794
lowerneck -12.2556 -2.22457 -2.19552
upperneck 24.5751 -3.57123 0.606194
head 9.85968 -2.08508 0.102506
rclavicle -9.06334e-014 -2.54444e-014
rhumerus 193.749 -41.5523 142.934
rradius 14.4384
rwrist 118.306
rhand 2.77919 3.03255
rfingers 7.12502
rthumb 28.2495 -24.8578
lclavicle -9.06334e-014 -2.54444e-014
lhumerus -21.4101 20.1719 3.83873
lradius 19.448
lwrist -41.869
lhand -2.32317 29.8397
lfingers 7.12502
lthumb 23.3634 58.4417
rfemur -40.1195 7.84685 -6.87114
rtibia 26.4172
rfoot -67.1777 9.18637
rtoes 62.3992
lfemur -17.1676 6.14849 -34.7162
ltibia 23.1741
lfoot -28.3997 23.4442
ltoes 1.06868
50
root 4.402 17.0457 20.3152 -161.3 -43.8076 175.952
lowerback -5.22804 1.16391 -4.47019
upperback -7.61496 1.18186 0.189555
thorax -5.10124 0.637974 2.72217
lowerneck -12.7073 -2.16546 -2.37256
upperneck 24.7278 -3.46371 0.751131
head 10.0058 -2.02834 0.188327
rclavicle 7.00716e-015 2.3059e-014
rhumerus 197.599 -47.0525 138.443
rradius 13.8521
rwrist 112.095
rhand 3.42775 1.73276
rfingers 7.12502
rthumb 28.8692 -26.0534
lclavicle 7.00716e-015 2.3059e-014
lhumerus -21.4712 21.4027 3.24035
lradius 19.2768
lwrist -42.7421
lhand -2.44734 29.7827
lfingers 7.12502
lthumb 23.2443 58.3999
rfemur -39.8378 8.14234 -7.13278
rtibia 26.4683
rfoot -67.8659 10.282
rtoes 62.4371
lfemur -16.4322 6.35468 -34.3483
ltibia 22.6604
lfoot -27.46 23.6614
ltoes -1.41044
51
root 4.44113 17.0819 20.1636 -160.92 -43.5371 175.46
lowerback -5.39891 1.1615 -4.84353
upperback -7.56591 1.19135 0.107321
thorax -4.96566 0.655548 2.84861
lowerneck -12.8887 -2.10079 -2.48033
upperneck 24.6377 -3.31011 0.708914
head 10.007 -1.9642 0.209978
rclavicle -1.3977e-014 -4.73108e-014
rhumerus 198.452 -47.0527 137.667
rradius 13.7681
rwrist 112.089
rhand 3.33764 1.87483
rfingers 7.12502
rthumb 28.7831 -25.926
lclavicle -1.3977e-014 -4.73108e-014
lhumerus -21.6727 22.5347 2.80547
lradius 19.0875
lwrist -43.8543
lhand -2.30867 29.7265
lfingers 7.12502
lthumb 23.3773 58.3267
rfemur -39.7711 8.11886 -7.36523
rtibia 26.5864
rfoot -68.0757 10.6984
rtoes 62.7341
lfemur -15.887 6.38055 -34.1675
ltibia 22.1433
lfoot -26.5427 23.9455
ltoes -2.63285
